<svg xmlns="http://www.w3.org/2000/svg" viewBox="0 0 53.19 53.19"><defs><style>.cls-1{fill:#fff;}</style></defs><title>Recurso 5</title><g id="Capa_2" data-name="Capa 2"><g id="Capa_2-2" data-name="Capa 2"><path class="cls-1" d="M26.59,4.79c7.11,0,8,0,10.75.16a15,15,0,0,1,4.94.91,8.8,8.8,0,0,1,5,5.05,15,15,0,0,1,.91,4.94c.13,2.8.16,3.64.16,10.75s0,7.94-.16,10.74a14.9,14.9,0,0,1-.91,4.94,8.36,8.36,0,0,1-2,3.06,8.23,8.23,0,0,1-3.06,2,14.7,14.7,0,0,1-4.94.91c-2.8.13-3.64.16-10.75.16s-7.94,0-10.74-.16a14.7,14.7,0,0,1-4.94-.91,8.23,8.23,0,0,1-3.06-2,8.23,8.23,0,0,1-2-3.06A14.9,14.9,0,0,1,5,37.34c-.13-2.8-.16-3.64-.16-10.74s0-8,.16-10.75a15,15,0,0,1,.91-4.94,8.23,8.23,0,0,1,2-3.06,8.36,8.36,0,0,1,3.06-2A15,15,0,0,1,15.85,5c2.8-.13,3.64-.16,10.74-.16m0-4.79c-7.22,0-8.12,0-11,.16A19.54,19.54,0,0,0,9.17,1.4,13.13,13.13,0,0,0,4.46,4.46,13.08,13.08,0,0,0,1.4,9.17,19.54,19.54,0,0,0,.16,15.63C0,18.47,0,19.37,0,26.6s0,8.12.16,11A19.54,19.54,0,0,0,1.4,44a13.52,13.52,0,0,0,7.77,7.77A19.54,19.54,0,0,0,15.63,53c2.84.13,3.74.16,11,.16s8.13,0,11-.16A19.54,19.54,0,0,0,44,51.79a13.08,13.08,0,0,0,4.71-3.06A13.22,13.22,0,0,0,51.79,44,19.54,19.54,0,0,0,53,37.56c.13-2.84.16-3.74.16-11s0-8.13-.16-11a19.54,19.54,0,0,0-1.24-6.46A13.52,13.52,0,0,0,44,1.4,19.54,19.54,0,0,0,37.56.16C34.72,0,33.82,0,26.59,0"/><path class="cls-1" d="M26.59,12.94A13.66,13.66,0,1,0,40.25,26.6,13.65,13.65,0,0,0,26.59,12.94m0,22.52a8.87,8.87,0,1,1,8.87-8.86,8.86,8.86,0,0,1-8.87,8.86"/><path class="cls-1" d="M44,12.4a3.19,3.19,0,1,1-3.19-3.19A3.19,3.19,0,0,1,44,12.4"/></g></g></svg>