<svg xmlns="http://www.w3.org/2000/svg" xmlns:xlink="http://www.w3.org/1999/xlink" viewBox="0 0 93.13 93.13"><defs><style>.cls-1{fill:url(#linear-gradient);}.cls-2{fill:#fff;fill-rule:evenodd;}</style><linearGradient id="linear-gradient" x1="46.57" y1="86.37" x2="46.57" y2="-6.77" gradientUnits="userSpaceOnUse"><stop offset="0" stop-color="#78cd51"/><stop offset="1" stop-color="#a0fc84"/></linearGradient></defs><title>Recurso 7</title><g id="Capa_2" data-name="Capa 2"><g id="Capa_2-2" data-name="Capa 2"><circle class="cls-1" cx="46.57" cy="46.57" r="46.57"/><g id="WA_Logo" data-name="WA Logo"><path class="cls-2" d="M69,24.74a29.55,29.55,0,0,0-46.5,35.63L18.28,75.68l15.66-4.11a29.54,29.54,0,0,0,14.12,3.59h0A29.54,29.54,0,0,0,69,24.74ZM48.07,70.18h0a24.6,24.6,0,0,1-12.5-3.43l-.89-.53-9.3,2.44,2.49-9.06-.59-.93a24.55,24.55,0,1,1,20.8,11.51ZM61.54,51.79c-.74-.37-4.37-2.15-5-2.4s-1.17-.37-1.67.37-1.9,2.4-2.33,2.89-.86.56-1.6.19A20.22,20.22,0,0,1,45,49.18a22.3,22.3,0,0,1-4.1-5.12c-.43-.73,0-1.13.32-1.5s.74-.86,1.11-1.29A4.71,4.71,0,0,0,43,40,1.33,1.33,0,0,0,43,38.74c-.18-.37-1.66-4-2.27-5.48S39.48,32,39,32s-.93,0-1.42,0a2.75,2.75,0,0,0-2,.92,8.32,8.32,0,0,0-2.58,6.16c0,3.63,2.65,7.14,3,7.63s5.21,8,12.61,11.15a42.35,42.35,0,0,0,4.21,1.55,10.14,10.14,0,0,0,4.65.29c1.42-.21,4.37-1.78,5-3.51A6.07,6.07,0,0,0,63,52.65C62.77,52.35,62.28,52.16,61.54,51.79Z"/></g></g></g></svg>