<svg xmlns="http://www.w3.org/2000/svg" viewBox="0 0 53.19 53.19"><defs><style>.cls-1{fill:#fff;}</style></defs><title>Recurso 4</title><g id="Capa_2" data-name="Capa 2"><g id="Capa_2-2" data-name="Capa 2"><path class="cls-1" d="M53.19,13.91A14,14,0,0,0,39.28,0H13.91A14,14,0,0,0,0,13.91V39.28A14,14,0,0,0,13.91,53.19h8.53v-18H15.69V27.47h6.75V21.61c0-6.67,4-10.35,10-10.35a41,41,0,0,1,6,.52v6.55H35.08c-3.3,0-4.33,2.05-4.33,4.15v5h7.38L37,35.16h-6.2v18h8.53A14,14,0,0,0,53.19,39.28Z"/></g></g></svg>