<svg xmlns="http://www.w3.org/2000/svg" viewBox="0 0 40 40"><defs><style>.cls-1{fill:#76a6d7;}</style></defs><title>Recurso 7</title><g id="Capa_2" data-name="Capa 2"><g id="Capa_3" data-name="Capa 3"><rect class="cls-1" y="16.55" width="40" height="23.45"/><path class="cls-1" d="M20.34,37.5h-.68A14.83,14.83,0,0,1,4.9,22.63V14.87A14.83,14.83,0,0,1,19.66,0h.68A14.83,14.83,0,0,1,35.1,14.87v7.76A14.83,14.83,0,0,1,20.34,37.5ZM19.66,5.15A9.69,9.69,0,0,0,10,14.87v7.76a9.69,9.69,0,0,0,9.64,9.72h.68A9.69,9.69,0,0,0,30,22.63V14.87a9.69,9.69,0,0,0-9.64-9.72Z"/></g></g></svg>