<svg xmlns="http://www.w3.org/2000/svg" viewBox="0 0 24.56 24.23"><defs><style>.cls-1{fill:none;stroke:#211915;stroke-linecap:round;stroke-linejoin:round;stroke-width:1.24px;}</style></defs><title>Recurso 2</title><g id="Capa_2" data-name="Capa 2"><g id="Capa_2-2" data-name="Capa 2"><polyline class="cls-1" points="18.4 20.45 18.4 23.61 0.62 23.61 0.62 0.62 13.58 0.62 18.4 5.44 18.4 12.16"/><polygon class="cls-1" points="18.4 5.44 13.58 5.44 13.58 0.62 18.4 5.44"/><polygon class="cls-1" points="15.2 23.61 11.06 23.61 11.06 19.46 15.2 23.61"/><rect class="cls-1" x="13.88" y="12.69" width="5.82" height="10.38" transform="translate(17.56 -6.63) rotate(45)"/><path class="cls-1" d="M20.07,11.73h2.82a1.5,1.5,0,0,1,1.5,1.5v1.41a0,0,0,0,1,0,0H18.57a0,0,0,0,1,0,0V13.23a1.5,1.5,0,0,1,1.5-1.5Z" transform="translate(15.61 -11.33) rotate(45)"/></g></g></svg>