<svg xmlns="http://www.w3.org/2000/svg" viewBox="0 0 40 40"><defs><style>.cls-1{fill:#76a6d7;}</style></defs><title>Recurso 6</title><g id="Capa_2" data-name="Capa 2"><g id="Capa_3" data-name="Capa 3"><path class="cls-1" d="M1.92,20.8h0a3.67,3.67,0,0,1,1,5.67h0a3.65,3.65,0,0,0,3.43,6h0a3.62,3.62,0,0,1,4.36,3.71h0a3.6,3.6,0,0,0,6.45,2.37h0a3.59,3.59,0,0,1,5.7,0h0a3.6,3.6,0,0,0,6.45-2.37h0a3.62,3.62,0,0,1,4.36-3.71h0a3.65,3.65,0,0,0,3.43-6h0a3.67,3.67,0,0,1,1-5.67h0A3.66,3.66,0,0,0,36.89,14,3.65,3.65,0,0,1,34,9h0A3.63,3.63,0,0,0,28.78,4.5a3.59,3.59,0,0,1-5.35-2h0a3.59,3.59,0,0,0-6.86,0h0a3.59,3.59,0,0,1-5.35,2A3.63,3.63,0,0,0,6,9H6a3.65,3.65,0,0,1-2.85,5A3.66,3.66,0,0,0,1.92,20.8ZM20,10.13A9.87,9.87,0,1,1,10.26,20,9.81,9.81,0,0,1,20,10.13Z"/></g></g></svg>