<svg xmlns="http://www.w3.org/2000/svg" viewBox="0 0 353.76 127.65"><defs><style>.cls-1{fill:#fff;}.cls-2{fill:#d9a644;}.cls-3{fill:#c04a37;}</style></defs><title>Recurso 1</title><g id="Capa_2" data-name="Capa 2"><g id="Capa_2-2" data-name="Capa 2"><path class="cls-1" d="M202.18,79.83c0,6.41-3.33,9.69-8.75,9.69s-8.8-3.48-8.8-9.94V59.79h-6.12v20c0,10.09,5.77,15.31,14.82,15.31s15-5.22,15-15.61V59.79h-6.11Z"/><polygon class="cls-1" points="256.87 59.79 250.75 59.79 250.75 94.59 275.16 94.59 275.16 89.02 256.87 89.02 256.87 59.79"/><rect class="cls-1" x="279.88" y="59.79" width="6.11" height="34.8"/><polygon class="cls-1" points="346.75 59.79 336.9 75.2 327.16 59.79 325.27 59.79 319.95 59.79 319.06 59.79 290.82 59.79 290.82 65.46 301.86 65.46 301.86 94.59 308.02 94.59 308.02 65.46 319.06 65.46 323.67 65.46 333.77 80.87 333.77 94.59 339.94 94.59 339.94 80.72 353.76 59.79 346.75 59.79"/><path class="cls-1" d="M173.64,77.19v-.1a18.2,18.2,0,0,0-36.39.1v.1a17.67,17.67,0,0,0,18.14,17.9A18,18,0,0,0,166,91.91l4.18,3.73,3.93-4.38-4-3.38A17.66,17.66,0,0,0,173.64,77.19Zm-6.41,0h0v.1A12.34,12.34,0,0,1,166,82.87a11.65,11.65,0,0,1-6.14,5.85l-.7.26-.2.07a11.7,11.7,0,0,1-2.18.45h-.13a10.42,10.42,0,0,1-1.13.06h-.05q-.6,0-1.2-.06c-6.24-.64-10.58-6-10.58-12.32v-.1c0-6.76,4.82-12.28,11.73-12.28h.05a12.09,12.09,0,0,1,1.21.07c6.24.63,10.57,6,10.58,12.31Z"/><polygon class="cls-1" points="225.79 59.54 210.48 94.59 216.75 94.59 228.53 66.85 240.31 94.59 246.77 94.59 231.46 59.54 225.79 59.54"/><polygon class="cls-1" points="44.65 54.43 44.65 74.58 44.65 93.95 55.49 93.95 55.49 54.43 44.65 54.43"/><rect class="cls-1" x="18.16" y="54.43" width="10.84" height="39.52"/><polygon class="cls-1" points="29 54.43 31.46 76.96 44.65 93.95 42.19 71.42 29 54.43"/><polygon class="cls-1" points="112.27 34.45 112.27 118.17 9.48 118.17 0 127.65 0 127.65 121.75 127.65 121.75 28.42 112.27 34.45"/><path class="cls-2" d="M81.65,66.55a9,9,0,0,1,9,8.72h12.9a28.51,28.51,0,0,0-2.63-3A19.65,19.65,0,0,0,91.6,55.63L90.3,62v0l0,.24V53.9a20.87,20.87,0,0,0-3.19-1.24l-.74,12.81L85.07,50.85a22.39,22.39,0,0,0-3.77-.32h0a22.42,22.42,0,0,0-3.78.32L76.26,65.47l-.74-12.81a20.87,20.87,0,0,0-3.19,1.24v8.31l0-.22v0L71,55.63a19.65,19.65,0,0,0-9.35,16.68,28.51,28.51,0,0,0-2.63,3H72.62A9,9,0,0,1,81.65,66.55Z"/><path class="cls-1" d="M100.71,82.41H87.63a8.84,8.84,0,0,1-12.74-.84,9,9,0,0,1-1.83-3.18c-.1-.28-.2-.56-.28-.86H61.28a20.33,20.33,0,0,0,3.14,8.27h0l.35.46A19.88,19.88,0,0,0,68.17,90,18.66,18.66,0,0,0,77.6,94.4a21.88,21.88,0,0,0,3.82.34h.49a21.32,21.32,0,0,0,3.86-.35A18.66,18.66,0,0,0,95.22,90a19.19,19.19,0,0,0,3.31-3.6l.4-.53h0A20.41,20.41,0,0,0,100.71,82.41Z"/><polygon class="cls-3" points="60.87 0 0 28.42 0 28.42 0 127.65 9.48 118.17 9.48 34.45 9.48 34.45 60.87 10.46 112.27 34.45 121.75 28.42 60.87 0"/></g></g></svg>