<svg xmlns="http://www.w3.org/2000/svg" viewBox="0 0 95.38 100"><defs><style>.cls-1{fill:#fff;}.cls-2{fill:#d9a644;}.cls-3{fill:#c04a37;}</style></defs><title>Recurso 9</title><g id="Capa_2" data-name="Capa 2"><g id="Capa_2-2" data-name="Capa 2"><polygon class="cls-1" points="34.98 42.64 34.98 58.43 34.98 73.6 43.47 73.6 43.47 42.64 34.98 42.64"/><rect class="cls-1" x="14.23" y="42.64" width="8.49" height="30.96"/><polygon class="cls-1" points="22.72 42.64 24.64 60.29 34.98 73.6 33.05 55.95 22.72 42.64"/><polygon class="cls-1" points="87.95 26.99 87.95 92.58 7.42 92.58 0 100 0 100 95.38 100 95.38 22.26 87.95 26.99"/><path class="cls-2" d="M64,52.13A7.09,7.09,0,0,1,71,59h10.1a21.51,21.51,0,0,0-2.06-2.31,15.37,15.37,0,0,0-7.32-13.07l-1,5v0l0,.18V42.22a16.35,16.35,0,0,0-2.5-1l-.58,10-1-11.45a16.86,16.86,0,0,0-3-.25h0a17,17,0,0,0-3,.25l-1,11.45-.57-10a15,15,0,0,0-2.5,1v6.51l0-.17v0l-1-5a15.38,15.38,0,0,0-7.33,13.07A21.51,21.51,0,0,0,46.23,59H56.89A7.08,7.08,0,0,1,64,52.13Z"/><path class="cls-1" d="M78.9,64.56H68.65a6.91,6.91,0,0,1-10-.66,7,7,0,0,1-1.44-2.49c-.08-.22-.15-.44-.21-.67H48a15.89,15.89,0,0,0,2.46,6.47h0l.27.36a15.23,15.23,0,0,0,2.69,2.92A14.55,14.55,0,0,0,60.79,74a16.41,16.41,0,0,0,3,.27h.38a17.67,17.67,0,0,0,3-.27,14.69,14.69,0,0,0,7.41-3.48,15.78,15.78,0,0,0,2.59-2.82l.31-.42h0A16.45,16.45,0,0,0,78.9,64.56Z"/><polygon class="cls-3" points="47.69 0 0 22.26 0 22.26 0 100 7.42 92.58 7.42 26.99 7.42 26.99 47.69 8.2 87.95 26.99 95.38 22.26 47.69 0"/></g></g></svg>